<svg width="13" height="18" viewBox="0 0 13 18" fill="none" xmlns="http://www.w3.org/2000/svg">
<path d="M6.4927 0C2.90348 0 0 2.90348 0 6.4927C0 8.36027 0.933782 10.0527 1.85297 11.6139C2.97643 13.5546 4.31874 15.3636 5.87991 16.9686C6.21549 17.3186 6.77007 17.3186 7.12009 16.9686C8.49158 15.6117 9.70258 14.0797 10.7239 12.4456C11.8182 10.68 13 8.63734 13 6.4927C12.9854 2.91807 10.0819 0 6.4927 0ZM6.4927 10.257C4.31874 10.257 2.55331 8.49158 2.55331 6.31762C2.55331 4.14366 4.31874 2.37823 6.4927 2.37823C8.66667 2.37823 10.4321 4.12907 10.4321 6.31762C10.4321 8.50617 8.66667 10.257 6.4927 10.257Z" fill="#EF5726"/>
</svg>
