<svg width="62" height="62" viewBox="0 0 62 62" fill="none" xmlns="http://www.w3.org/2000/svg">
<path d="M46.9761 27.4922C46.9761 25.5927 45.4309 24.0476 43.5314 24.0476H37.2007C38.7388 22.3188 39.744 20.3501 39.9382 18.584C40.0568 17.5053 39.7235 16.4345 39.0235 15.6462C38.3838 14.9256 37.509 14.524 36.5603 14.5153C36.5492 14.5151 36.5382 14.5151 36.5273 14.5151C35.6096 14.5151 34.7483 14.8686 34.0983 15.5126C33.4481 16.1568 33.0884 17.015 33.0841 17.9308C33.0507 18.1313 32.698 18.8226 31.8349 19.6434C31.1283 20.3156 29.9077 21.2396 28.1054 21.8247C27.3988 22.0542 26.753 22.4766 26.186 23.0804C25.8885 23.397 25.4429 23.8343 24.8913 24.2733C24.6206 24.1299 24.3128 24.0479 23.9857 24.0479H17.9732C16.9026 24.0479 16.0316 24.9188 16.0316 25.9894V42.0228C16.0316 43.0934 16.9026 43.9643 17.9732 43.9643H23.9857C24.7156 43.9643 25.352 43.5591 25.6836 42.9623H41.0262C42.6493 42.9623 43.9698 41.6418 43.9698 40.0186C43.9698 39.4729 43.8206 38.9615 43.5607 38.5227C44.4064 38.005 44.9719 37.0724 44.9719 36.0102C44.9719 35.4645 44.8227 34.9531 44.5628 34.5143C45.4085 33.9966 45.9739 33.064 45.9739 32.0018C45.9739 31.3875 45.7848 30.8166 45.4617 30.3441C46.3749 29.7238 46.9761 28.6769 46.9761 27.4922ZM43.5314 29.058H43.0303C42.5115 29.058 42.0908 29.4786 42.0908 29.9975C42.0908 30.5163 42.5114 30.937 43.0303 30.937C43.6174 30.937 44.0951 31.4146 44.0951 32.0017C44.0951 32.5888 43.6174 33.0665 43.0303 33.0665H42.0282C41.5094 33.0665 41.0887 33.4871 41.0887 34.006C41.0887 34.5248 41.5093 34.9455 42.0282 34.9455C42.6153 34.9455 43.093 35.4231 43.093 36.0102C43.093 36.5973 42.6153 37.075 42.0282 37.075H41.0262C40.5074 37.075 40.0867 37.4956 40.0867 38.0145C40.0867 38.5333 40.5072 38.954 41.0262 38.954C41.6133 38.954 42.0909 39.4316 42.0909 40.0188C42.0909 40.6059 41.6133 41.0835 41.0262 41.0835H25.9273V32.0021C25.9273 31.4833 25.5067 31.0626 24.9878 31.0626C24.4689 31.0626 24.0483 31.4832 24.0483 32.0021V42.0229C24.0483 42.0575 24.0203 42.0855 23.9857 42.0855H17.9732C17.9386 42.0855 17.9106 42.0575 17.9106 42.0229V25.9891C17.9106 25.9545 17.9386 25.9265 17.9732 25.9265H23.9857C24.0203 25.9265 24.0483 25.9545 24.0483 25.9891V27.9933C24.0483 28.5121 24.4689 28.9328 24.9878 28.9328C25.5067 28.9328 25.9273 28.5122 25.9273 27.9933V25.9891C25.9273 25.9435 25.9235 25.8988 25.9204 25.8541C26.6248 25.3088 27.1881 24.7576 27.5556 24.3664C27.9033 23.996 28.2834 23.7421 28.6855 23.6117C30.8968 22.8938 32.385 21.7379 33.2439 20.8946C34.3203 19.8377 34.9629 18.7359 34.9629 17.9471C34.9629 17.5304 35.1254 17.1398 35.4206 16.8473C35.7194 16.5512 36.1152 16.3947 36.5428 16.3941C37.0694 16.399 37.4182 16.6685 37.6182 16.8937C37.9611 17.2798 38.1299 17.8351 38.0702 18.3787C37.865 20.2454 36.3722 22.5528 34.267 24.2569C33.9578 24.5074 33.8398 24.9255 33.9725 25.3006C34.1053 25.6757 34.4601 25.9265 34.8581 25.9265H43.5312C44.3946 25.9265 45.0969 26.6288 45.0969 27.4922C45.0969 28.3557 44.3947 29.058 43.5314 29.058Z" fill="url(#paint0_linear)" stroke="url(#paint1_linear)" stroke-width="0.4"/>
<path d="M20.9795 38.0667C20.4607 38.0667 20.0351 38.4923 20.0351 39.0111C20.0351 39.5299 20.4607 39.9555 20.9795 39.9555C21.4983 39.9555 21.9239 39.5299 21.9239 39.0111C21.924 38.4924 21.4984 38.0667 20.9795 38.0667Z" fill="url(#paint2_linear)" stroke="url(#paint3_linear)" stroke-width="0.4"/>
<path d="M59.3254 30.9999L60.9393 26.7293C61.0568 26.4186 61.0014 26.069 60.7936 25.8097L57.939 22.2467L58.1542 17.6864C58.1699 17.3547 58.0091 17.0392 57.7316 16.8569L53.9158 14.3504L52.7113 9.94674C52.6236 9.62635 52.3733 9.37604 52.0531 9.2885L47.6494 8.08405L45.1429 4.26831C44.9605 3.99069 44.6451 3.83062 44.3134 3.84573L39.7531 4.06089L36.1901 1.20632C35.9309 0.998667 35.5813 0.943237 35.2705 1.06066L30.9999 2.67456L26.7295 1.06078C26.4186 0.943237 26.0691 0.998667 25.8099 1.20644L22.2469 4.06101L17.6866 3.84585C17.3533 3.83015 17.0394 3.99093 16.8571 4.26843L14.3507 8.08428L9.94706 9.28874C9.62667 9.37639 9.37635 9.6267 9.28882 9.94698L8.08436 14.3506L4.26851 16.857C3.99089 17.0394 3.83023 17.3549 3.84593 17.6865L4.06109 22.2468L1.20652 25.8098C0.998864 26.069 0.943434 26.4186 1.06086 26.7294L2.67464 30.9999L1.06074 35.2705C0.9432 35.5811 0.99863 35.9307 1.2064 36.19L4.06097 39.753L3.84581 44.3133C3.83011 44.645 3.99089 44.9606 4.26839 45.1428L8.08425 47.6493L9.2887 52.053C9.37635 52.3734 9.62667 52.6237 9.94694 52.7112L14.3506 53.9157L16.857 57.7315C17.0394 58.0091 17.3554 58.1688 17.6865 58.1541L22.2468 57.9389L25.8098 60.7935C26.069 61.0013 26.4187 61.0567 26.7293 60.9392L31 59.3253L35.2707 60.9392C35.3785 60.9798 35.4909 60.9998 35.6026 60.9998C35.8131 60.9998 36.0209 60.9291 36.1901 60.7935L39.7531 57.9389L44.3134 58.1541C44.6461 58.1689 44.9605 58.009 45.1429 57.7315L47.6494 53.9157L52.0531 52.7112C52.3735 52.6236 52.6238 52.3733 52.7113 52.053L53.9158 47.6493L57.7316 45.1428C58.0092 44.9604 58.1699 44.645 58.1542 44.3133L57.939 39.753L60.7936 36.19C61.0013 35.9308 61.0567 35.5812 60.9393 35.2705L59.3254 30.9999ZM57.4423 31.332L58.9922 35.4335L56.2507 38.8552C56.1076 39.0337 56.0346 39.2583 56.0454 39.4869L56.2521 43.8665L52.5876 46.2737C52.3964 46.3992 52.2574 46.5903 52.1971 46.8111L51.0403 51.0402L46.8112 52.197C46.5905 52.2574 46.3995 52.3962 46.2737 52.5875L43.8666 56.252L39.4869 56.0453C39.2583 56.0348 39.0338 56.1075 38.8553 56.2506L35.4335 58.9921L31.3321 57.4422C31.2251 57.4018 31.1125 57.3816 31 57.3816C30.8875 57.3816 30.7749 57.4019 30.6679 57.4422L26.5665 58.9921L23.1447 56.2506C22.9662 56.1075 22.7412 56.0348 22.5131 56.0453L18.1334 56.252L15.7263 52.5875C15.6008 52.3963 15.4096 52.2574 15.1888 52.197L10.9597 51.0402L9.80292 46.8111C9.74256 46.5904 9.6037 46.3994 9.41245 46.2737L5.74788 43.8665L5.9546 39.4869C5.96538 39.2582 5.89237 39.0337 5.74929 38.8552L3.00781 35.4335L4.55784 31.332C4.6387 31.118 4.6387 30.8818 4.55784 30.6678L3.00781 26.5664L5.74929 23.1446C5.89237 22.9661 5.96538 22.7415 5.9546 22.513L5.74788 18.1333L9.41245 15.7262C9.60358 15.6007 9.74256 15.4095 9.80292 15.1888L10.9597 10.9596L15.1888 9.80284C15.4095 9.74248 15.6005 9.60362 15.7263 9.41237L18.1334 5.7478L22.5131 5.95452C22.7413 5.96518 22.9662 5.89229 23.1447 5.74921L26.5665 3.00773L30.6679 4.55776C30.882 4.63862 31.1181 4.63862 31.3321 4.55776L35.4335 3.00773L38.8553 5.74921C39.0338 5.89241 39.2585 5.9653 39.4869 5.95452L43.8666 5.7478L46.2737 9.41237C46.3992 9.6035 46.5904 9.74248 46.8112 9.80284L51.0403 10.9596L52.1971 15.1888C52.2574 15.4094 52.3963 15.6004 52.5876 15.7262L56.2521 18.1333L56.0454 22.513C56.0346 22.7416 56.1076 22.9661 56.2507 23.1446L58.9922 26.5664L57.4422 30.6678C57.3614 30.8819 57.3614 31.118 57.4423 31.332Z" fill="url(#paint4_linear)" stroke="url(#paint5_linear)" stroke-width="0.4"/>
<path d="M48.6527 14.7778C48.4189 14.5233 48.1764 14.2702 47.9316 14.0255C47.6868 13.7808 47.4338 13.5382 47.1793 13.3044C46.7971 12.9536 46.2029 12.9789 45.8519 13.3611C45.5011 13.7433 45.5264 14.3377 45.9086 14.6885C46.1434 14.9042 46.377 15.128 46.603 15.3539C46.8288 15.5797 47.0527 15.8135 47.2685 16.0484C47.4537 16.2502 47.7069 16.3525 47.9608 16.3525C48.1878 16.3525 48.4155 16.2707 48.5958 16.1051C48.9781 15.7544 49.0035 15.16 48.6527 14.7778Z" fill="url(#paint6_linear)" stroke="url(#paint7_linear)" stroke-width="0.4"/>
<path d="M43.8431 10.7408C39.3126 7.85445 33.858 6.57172 28.4846 7.12801C23.0325 7.69285 17.8915 10.1423 14.0084 14.0253C9.7349 18.2988 7.24678 23.9758 7.00233 30.0106C6.7594 36.0099 8.74643 41.8346 12.5976 46.4114C12.7833 46.6322 13.0491 46.746 13.317 46.746C13.5305 46.746 13.7452 46.6736 13.9213 46.5255C14.3182 46.1914 14.3693 45.5987 14.0353 45.2018C10.4868 40.9844 8.65584 35.6165 8.87967 30.0868C9.10491 24.5248 11.398 19.2926 15.3368 15.354C18.9157 11.775 23.6538 9.51734 28.6781 8.99691C33.6322 8.48363 38.6591 9.66593 42.8334 12.3254C43.2711 12.6042 43.8517 12.4755 44.1305 12.0379C44.4094 11.6002 44.2806 11.0196 43.8431 10.7408Z" fill="url(#paint8_linear)" stroke="url(#paint9_linear)" stroke-width="0.4"/>
<path d="M51.2164 18.114C50.9376 17.6764 50.3566 17.5477 49.9193 17.8265C49.4816 18.1053 49.353 18.686 49.6318 19.1235C52.2912 23.2979 53.4733 28.3251 52.9603 33.2788C52.4398 38.3031 50.1822 43.0411 46.6033 46.6202C42.6645 50.5589 37.4324 52.8521 31.8705 53.0774C26.3417 53.3021 20.9728 51.4704 16.7555 47.9219C16.3586 47.5878 15.7659 47.6389 15.4318 48.036C15.0977 48.4329 15.1488 49.0255 15.5459 49.3596C19.8725 53 25.3135 54.9749 30.9637 54.9747C31.2906 54.9747 31.6187 54.9681 31.9468 54.9548C37.9816 54.7105 43.6585 52.2224 47.9321 47.9489C51.8152 44.0658 54.2648 38.9246 54.8294 33.4725C55.3858 28.0988 54.1027 22.6444 51.2164 18.114Z" fill="url(#paint10_linear)" stroke="url(#paint11_linear)" stroke-width="0.4"/>
<defs>
<linearGradient id="paint0_linear" x1="16.0316" y1="29.2397" x2="46.9761" y2="29.2397" gradientUnits="userSpaceOnUse">
<stop stop-color="#EF5726"/>
<stop offset="1" stop-color="#C62433"/>
</linearGradient>
<linearGradient id="paint1_linear" x1="16.0316" y1="29.2397" x2="46.9761" y2="29.2397" gradientUnits="userSpaceOnUse">
<stop stop-color="#EF5726"/>
<stop offset="1" stop-color="#C62433"/>
</linearGradient>
<linearGradient id="paint2_linear" x1="20.0351" y1="39.0111" x2="21.9239" y2="39.0111" gradientUnits="userSpaceOnUse">
<stop stop-color="#EF5726"/>
<stop offset="1" stop-color="#C62433"/>
</linearGradient>
<linearGradient id="paint3_linear" x1="20.0351" y1="39.0111" x2="21.9239" y2="39.0111" gradientUnits="userSpaceOnUse">
<stop stop-color="#EF5726"/>
<stop offset="1" stop-color="#C62433"/>
</linearGradient>
<linearGradient id="paint4_linear" x1="1" y1="31" x2="61" y2="31" gradientUnits="userSpaceOnUse">
<stop stop-color="#EF5726"/>
<stop offset="1" stop-color="#C62433"/>
</linearGradient>
<linearGradient id="paint5_linear" x1="1" y1="31" x2="61" y2="31" gradientUnits="userSpaceOnUse">
<stop stop-color="#EF5726"/>
<stop offset="1" stop-color="#C62433"/>
</linearGradient>
<linearGradient id="paint6_linear" x1="45.6045" y1="14.7047" x2="48.9001" y2="14.7047" gradientUnits="userSpaceOnUse">
<stop stop-color="#EF5726"/>
<stop offset="1" stop-color="#C62433"/>
</linearGradient>
<linearGradient id="paint7_linear" x1="45.6045" y1="14.7047" x2="48.9001" y2="14.7047" gradientUnits="userSpaceOnUse">
<stop stop-color="#EF5726"/>
<stop offset="1" stop-color="#C62433"/>
</linearGradient>
<linearGradient id="paint8_linear" x1="6.98242" y1="26.8735" x2="44.2778" y2="26.8735" gradientUnits="userSpaceOnUse">
<stop stop-color="#EF5726"/>
<stop offset="1" stop-color="#C62433"/>
</linearGradient>
<linearGradient id="paint9_linear" x1="6.98242" y1="26.8735" x2="44.2778" y2="26.8735" gradientUnits="userSpaceOnUse">
<stop stop-color="#EF5726"/>
<stop offset="1" stop-color="#C62433"/>
</linearGradient>
<linearGradient id="paint10_linear" x1="15.2112" y1="36.327" x2="54.9565" y2="36.327" gradientUnits="userSpaceOnUse">
<stop stop-color="#EF5726"/>
<stop offset="1" stop-color="#C62433"/>
</linearGradient>
<linearGradient id="paint11_linear" x1="15.2112" y1="36.327" x2="54.9565" y2="36.327" gradientUnits="userSpaceOnUse">
<stop stop-color="#EF5726"/>
<stop offset="1" stop-color="#C62433"/>
</linearGradient>
</defs>
</svg>
