<svg width="60" height="58" viewBox="0 0 60 58" fill="none" xmlns="http://www.w3.org/2000/svg">
<path d="M53 4H47C45.3439 4.00188 44.0019 5.34388 44 7V13C44.0019 14.6561 45.3439 15.9981 47 16H49V17.382L43.7156 20.0241C41.379 18.0673 38.4274 16.9965 35.3795 17H30.693L28 15.4261V14H30C31.6561 13.9981 32.9981 12.6561 33 11V7C32.9981 5.34388 31.6561 4.00188 30 4H24C22.3439 4.00188 21.0019 5.34388 21 7V11C21.0019 12.6561 22.3439 13.9981 24 14H26V16C26 16.3554 26.1886 16.684 26.4954 16.8634L27.3556 17.3661C24.1818 18.1336 21.4141 20.0703 19.6056 22.789L19.4649 23H14.3334L11 20.5V18H13C14.6561 17.9981 15.9981 16.6561 16 15V9C15.9981 7.34388 14.6561 6.00188 13 6H7C5.34388 6.00188 4.00188 7.34388 4 9V15C4.00188 16.6561 5.34388 17.9981 7 18H9V21C9 21.3148 9.14825 21.6111 9.4 21.8L11.2851 23.2139C9.015 23.7841 7.18288 25.456 6.40788 27.6646C6.1365 28.4133 5.99838 29.2036 6 30V34C6 34.5523 6.44775 35 7 35H12.3585C13.8671 36.3334 16.1329 36.3334 17.6415 35H40.3585C41.8671 36.3334 44.1329 36.3334 45.6415 35H50C50.5523 35 51 34.5523 51 34V28C50.9968 25.4291 49.0468 23.2785 46.4885 23.0241L45.3664 21.6776C45.3185 21.6201 45.2694 21.5641 45.2208 21.5076L50.4473 18.8944C50.786 18.725 51 18.3788 51 18V16H53C54.6561 15.9981 55.9981 14.6561 56 13V7C55.9981 5.34388 54.6561 4.00188 53 4ZM7 16C6.448 15.9994 6.00063 15.552 6 15V9C6.00063 8.448 6.448 8.00063 7 8H13C13.552 8.00063 13.9994 8.448 14 9V15C13.9994 15.552 13.552 15.9994 13 16H7ZM16.525 33.2911C16.5011 33.315 16.4784 33.34 16.457 33.3661C15.7079 34.1708 14.4483 34.2156 13.6436 33.4665C13.609 33.4343 13.5755 33.4008 13.5433 33.3661C13.5219 33.34 13.4991 33.315 13.4753 33.2911C12.7606 32.4489 12.864 31.1868 13.7063 30.4721C14.5485 29.7575 15.8106 29.8609 16.5253 30.7031C17.1586 31.4495 17.1586 32.5446 16.5253 33.2911H16.525ZM21 33H18.8734C19.4249 30.8608 18.1378 28.6796 15.9985 28.1281C13.8593 27.5766 11.6781 28.8638 11.1266 31.003C10.9578 31.658 10.9578 32.345 11.1266 33H8V30C7.99988 29.664 8.03438 29.3289 8.103 29H11V27H9C9.9435 25.74 11.4259 24.9989 13 25H21V33ZM24 12C23.448 11.9994 23.0006 11.552 23 11V7C23.0006 6.448 23.448 6.00063 24 6H30C30.552 6.00063 30.9994 6.448 31 7V11C30.9994 11.552 30.552 11.9994 30 12H24ZM35 29.7639L33.382 33H23V25H35V29.7639ZM35 23H21.9375C24.0243 20.465 27.1364 18.9974 30.4198 19H35V23ZM37 19.1199C39.6715 19.5145 42.1034 20.8809 43.8299 22.9574L43.865 22.9995H37V19.1199ZM44.525 33.2911C44.5011 33.315 44.4784 33.34 44.457 33.3661C43.7079 34.1708 42.4483 34.2156 41.6436 33.4665C41.609 33.4343 41.5755 33.4008 41.5433 33.3661C41.5219 33.34 41.4991 33.315 41.4753 33.2911C40.7606 32.4489 40.864 31.1868 41.7063 30.4721C42.5485 29.7575 43.8106 29.8609 44.5253 30.7031C45.1586 31.4495 45.1586 32.5446 44.5253 33.2911H44.525ZM46 25C47.2708 25.0016 48.403 25.8024 48.828 27H47V29H49V33H46.8734C47.4249 30.8608 46.1378 28.6796 43.9985 28.1281C41.8593 27.5766 39.6781 28.8638 39.1266 31.003C38.9578 31.658 38.9578 32.345 39.1266 33H35.618L36.8944 30.4473C36.9639 30.3084 37 30.1553 37 30V25H46ZM54 13C53.9994 13.552 53.552 13.9994 53 14H47C46.448 13.9994 46.0006 13.552 46 13V7C46.0006 6.448 46.448 6.00063 47 6H53C53.552 6.00063 53.9994 6.448 54 7V13Z" fill="url(#paint0_linear)"/>
<path d="M57 0H3C1.344 0.001875 0.001875 1.344 0 3V43C0.001875 44.656 1.344 45.9981 3 46H21.9673C21.8336 48.0843 21.2944 50.1224 20.3797 52H18C16.3439 52.0019 15.0019 53.3439 15 55V57C15 57.5523 15.4478 58 16 58H44C44.5522 58 45 57.5523 45 57V55C44.9981 53.3439 43.6561 52.0019 42 52H39.6204C38.7058 50.1224 38.1664 48.0843 38.0329 46H57C58.656 45.9981 59.9981 44.656 60 43V3C59.9981 1.344 58.656 0.001875 57 0ZM42 54C42.552 54.0006 42.9994 54.448 43 55V56H17V55C17.0006 54.448 17.448 54.0006 18 54H42ZM30 50C32.2081 49.9975 33.9975 48.2081 34 46H36.0294C36.147 48.065 36.6181 50.0944 37.4222 52H22.5777C23.3819 50.0944 23.853 48.065 23.9706 46H26C26.0025 48.2081 27.7919 49.9975 30 50ZM28 46H32C32 47.1046 31.1046 48 30 48C28.8954 48 28 47.1046 28 46ZM58 43C57.9994 43.552 57.552 43.9994 57 44H3C2.448 43.9994 2.00062 43.552 2 43V40H58V43ZM58 38H2V3C2.00062 2.448 2.448 2.00063 3 2H57C57.552 2.00063 57.9994 2.448 58 3V38Z" fill="url(#paint1_linear)"/>
<path d="M29 27H33V29H29V27Z" fill="url(#paint2_linear)"/>
<path d="M52 20H56V22H52V20Z" fill="url(#paint3_linear)"/>
<path d="M52 24H56V26H52V24Z" fill="url(#paint4_linear)"/>
<defs>
<linearGradient id="paint0_linear" x1="4" y1="20" x2="56" y2="20" gradientUnits="userSpaceOnUse">
<stop stop-color="#EF5726"/>
<stop offset="1" stop-color="#C62433"/>
</linearGradient>
<linearGradient id="paint1_linear" x1="0" y1="29" x2="60" y2="29" gradientUnits="userSpaceOnUse">
<stop stop-color="#EF5726"/>
<stop offset="1" stop-color="#C62433"/>
</linearGradient>
<linearGradient id="paint2_linear" x1="29" y1="28" x2="33" y2="28" gradientUnits="userSpaceOnUse">
<stop stop-color="#EF5726"/>
<stop offset="1" stop-color="#C62433"/>
</linearGradient>
<linearGradient id="paint3_linear" x1="52" y1="21" x2="56" y2="21" gradientUnits="userSpaceOnUse">
<stop stop-color="#EF5726"/>
<stop offset="1" stop-color="#C62433"/>
</linearGradient>
<linearGradient id="paint4_linear" x1="52" y1="25" x2="56" y2="25" gradientUnits="userSpaceOnUse">
<stop stop-color="#EF5726"/>
<stop offset="1" stop-color="#C62433"/>
</linearGradient>
</defs>
</svg>
