<svg width="62" height="64" viewBox="0 0 62 64" fill="none" xmlns="http://www.w3.org/2000/svg">
<path d="M20.2857 28.6683C15.6635 28.6683 11.9031 24.9078 11.9031 20.2857C11.9031 15.6635 15.6635 11.9031 20.2857 11.9031C24.9078 11.9031 28.6683 15.6635 28.6683 20.2857C28.6683 24.9078 24.9078 28.6683 20.2857 28.6683ZM20.2857 13.7208C16.6658 13.7208 13.7208 16.6658 13.7208 20.2857C13.7208 23.9055 16.6658 26.8505 20.2857 26.8505C23.9055 26.8505 26.8505 23.9055 26.8505 20.2857C26.8505 16.6658 23.9055 13.7208 20.2857 13.7208Z" fill="url(#paint0_linear)" stroke="url(#paint1_linear)" stroke-width="0.4"/>
<path d="M20.2855 39.5708C19.2757 39.5708 18.2661 39.4109 17.2635 39.0911C16.311 38.7866 15.6116 37.9419 15.4811 36.9391C15.3736 36.1083 15.2894 35.258 15.231 34.4113C15.2105 34.1136 15.0229 33.8554 14.7406 33.7343C14.7297 33.7302 14.7189 33.7261 14.7081 33.7216C14.4198 33.602 14.0998 33.6507 13.8725 33.8485C13.2459 34.3947 12.5851 34.9362 11.9085 35.4583C11.1057 36.0763 10.0132 36.1786 9.12459 35.7196C7.25437 34.7546 5.81654 33.3167 4.85131 31.446C4.3924 30.5543 4.49601 29.4619 5.11477 28.6626C5.61695 28.0089 6.15888 27.3478 6.72371 26.6997C6.92027 26.4741 6.96971 26.1569 6.8535 25.8699C6.84793 25.8573 6.84271 25.8451 6.83823 25.8339C6.72226 25.5534 6.46208 25.3616 6.16264 25.3415C5.32829 25.2839 4.47795 25.1993 3.63367 25.09C2.63221 24.9615 1.7866 24.2626 1.48049 23.3092C0.839917 21.3025 0.839917 19.2693 1.48001 17.2641C1.78623 16.3105 2.63124 15.6111 3.63318 15.4807C4.46547 15.3729 5.31581 15.2888 6.16118 15.2304C6.46171 15.2097 6.72262 15.0178 6.84174 14.7296C6.84356 14.7252 6.84526 14.721 6.84708 14.7167C6.84829 14.7137 6.84962 14.7107 6.85083 14.7076C6.97056 14.4195 6.92185 14.0992 6.72383 13.872C6.15924 13.2241 5.61719 12.5629 5.11295 11.9066C4.49637 11.1077 4.39312 10.0159 4.85083 9.12644C5.71135 7.45993 6.94681 6.13528 8.52352 5.18824C8.95384 4.92975 9.51225 5.06911 9.77061 5.49931C10.0291 5.92963 9.88974 6.48792 9.45954 6.74641C8.17633 7.51713 7.16942 8.59808 6.46656 9.95921C6.3306 10.2234 6.36441 10.5529 6.55309 10.7974C7.03576 11.4256 7.55382 12.0576 8.09405 12.6773C8.74904 13.429 8.91591 14.474 8.52934 15.4046C8.52776 15.4084 8.52619 15.4122 8.52461 15.416C8.52352 15.4185 8.52243 15.4212 8.52146 15.4237C8.13683 16.354 7.28043 16.9747 6.28636 17.0436C5.47674 17.0994 4.66288 17.18 3.86695 17.283C3.56035 17.3229 3.30272 17.533 3.2111 17.818C2.68117 19.478 2.68117 21.0931 3.21159 22.7546C3.3026 23.038 3.55963 23.2474 3.86586 23.2868C4.67548 23.3916 5.48934 23.4726 6.28612 23.5276C7.27534 23.5941 8.1298 24.2107 8.51722 25.1376C8.52316 25.1508 8.52849 25.1634 8.53322 25.1751C8.91603 26.0965 8.74916 27.142 8.09393 27.8938C7.55357 28.5138 7.03552 29.1459 6.55406 29.7724C6.36368 30.0184 6.33023 30.3475 6.46705 30.6133C7.26625 32.1624 8.40852 33.3045 9.95833 34.1042C10.2236 34.2411 10.5532 34.2076 10.7989 34.0184C11.4461 33.5189 12.0787 33.0005 12.6782 32.478C13.4239 31.828 14.4587 31.6587 15.3841 32.0339C15.3934 32.0374 15.4025 32.0411 15.4116 32.0446C16.3544 32.4333 16.9758 33.2904 17.0444 34.2858C17.1004 35.0966 17.181 35.9105 17.2838 36.705C17.3237 37.0115 17.5329 37.2685 17.8166 37.3593C19.4779 37.8892 21.0937 37.8893 22.7555 37.3592C23.0386 37.2686 23.2477 37.0116 23.2877 36.7045C23.3906 35.9105 23.4711 35.0966 23.5272 34.2858C23.5959 33.2906 24.2173 32.4334 25.149 32.0492C25.1627 32.0437 25.1749 32.0389 25.1867 32.0344C26.1121 31.6587 27.1474 31.8278 27.8934 32.4782C28.4927 33.0005 29.1252 33.5189 29.7734 34.0191C30.0183 34.2076 30.3481 34.2413 30.6127 34.1044C32.1629 33.3045 33.3052 32.1624 34.1049 30.6126C34.2412 30.3476 34.2078 30.0186 34.0192 29.7751C33.5354 29.1455 33.0173 28.5134 32.4775 27.8941C31.8223 27.1424 31.6554 26.0969 32.0421 25.1657C32.0455 25.1577 32.0517 25.1434 32.0563 25.133C32.4493 24.2052 33.3006 23.594 34.2868 23.5277C35.082 23.4728 35.8958 23.3917 36.7045 23.2872C37.0118 23.2478 37.2688 23.0382 37.3603 22.7535C37.8903 21.0935 37.8903 19.4783 37.36 17.8168C37.269 17.5333 37.0112 17.3231 36.704 17.2833C35.9087 17.1803 35.0948 17.0998 34.2853 17.0439C33.291 16.9751 32.4347 16.3544 32.0501 15.424C32.0501 15.4238 32.0501 15.4237 32.05 15.4236C32.0454 15.4131 32.041 15.4025 32.0368 15.3917C31.6572 14.4643 31.8255 13.4256 32.4776 12.6777C33.0174 12.0585 33.5354 11.4265 34.0175 10.7991C34.2078 10.5531 34.2412 10.224 34.1045 9.95836C33.3053 8.4094 32.163 7.26713 30.6132 6.46744C30.3481 6.33039 30.0182 6.3642 29.7726 6.55324C29.1252 7.05276 28.4927 7.57118 27.8934 8.09348C27.1473 8.74387 26.1119 8.91304 25.1863 8.53701C25.1628 8.52804 25.1399 8.51847 25.1175 8.50792C24.2034 8.11747 23.595 7.26895 23.5272 6.28567C23.4712 5.47495 23.3907 4.66097 23.2877 3.86649C23.2479 3.5599 23.0387 3.30299 22.755 3.21223C21.0935 2.6812 19.4781 2.68108 17.8166 3.21223C17.5329 3.30299 17.3237 3.56002 17.2838 3.8671C17.1811 4.66097 17.1005 5.47495 17.0444 6.28579C16.9766 7.26895 16.3683 8.11747 15.454 8.50804C15.4317 8.51847 15.4089 8.52804 15.3854 8.53701C14.4598 8.91292 13.4244 8.74387 12.6783 8.09348C12.3633 7.81875 12.0306 7.53822 11.6888 7.25925C11.2999 6.94187 11.242 6.36929 11.5595 5.98041C11.8769 5.59165 12.4494 5.53361 12.8384 5.85111C13.1954 6.14243 13.5434 6.43594 13.873 6.72338C14.0989 6.92018 14.4171 6.9695 14.7042 6.85171C14.7126 6.84796 14.7212 6.8442 14.7297 6.84081C15.0182 6.72181 15.2104 6.46114 15.2311 6.16061C15.2896 5.31378 15.3739 4.46344 15.4812 3.63322C15.6119 2.62982 16.3112 1.78517 17.2631 1.48088C19.2689 0.839705 21.3029 0.839705 23.3087 1.48088C24.2607 1.7853 24.96 2.62994 25.0906 3.63273C25.1982 4.46356 25.2823 5.3139 25.3408 6.16061C25.3615 6.46126 25.5537 6.72193 25.8423 6.84093C25.8509 6.84444 25.8593 6.84808 25.8677 6.85184C26.1549 6.96938 26.4731 6.9203 26.6993 6.72326C27.3257 6.17733 27.9865 5.63564 28.6632 5.11347C29.4661 4.49519 30.5586 4.39303 31.4472 4.8522C33.3174 5.81718 34.7553 7.25513 35.7205 9.12571C36.1794 10.0175 36.0758 11.1097 35.4572 11.9092C34.9542 12.5636 34.4123 13.2248 33.8481 13.8721C33.6501 14.0993 33.6015 14.4195 33.7212 14.7078C33.7215 14.7084 33.7217 14.709 33.7219 14.7096C33.7261 14.719 33.7299 14.7284 33.7337 14.7379C33.8543 15.0215 34.113 15.2099 34.4109 15.2305C35.2562 15.2888 36.1064 15.3731 36.9381 15.4807C37.9408 15.6112 38.7857 16.3107 39.0914 17.2628C39.732 19.2693 39.732 21.3027 39.0919 23.3078C38.7854 24.2624 37.9398 24.9615 36.9372 25.0901C36.094 25.1993 35.2435 25.2839 34.4107 25.3415C34.1097 25.3617 33.8497 25.5535 33.7303 25.8422C33.7276 25.8487 33.7231 25.859 33.719 25.8682C33.6029 26.1623 33.6532 26.4761 33.848 26.6997C34.4123 27.3472 34.9544 28.0084 35.459 28.6651C36.0757 29.4622 36.1793 30.5544 35.721 31.4452C34.7553 33.3166 33.3174 34.7546 31.4468 35.7197C30.5585 36.1785 29.466 36.0762 28.664 35.4589C27.9865 34.936 27.3258 34.3944 26.6993 33.8484C26.472 33.6504 26.1519 33.6019 25.8637 33.7215C25.8522 33.7263 25.8407 33.7308 25.8291 33.7351C25.5508 33.8525 25.3615 34.1119 25.3408 34.411C25.2823 35.2579 25.1982 36.1081 25.0907 36.9384C24.9602 37.9417 24.2608 38.7863 23.3088 39.0908C22.3055 39.4107 21.2954 39.5708 20.2855 39.5708ZM25.8037 33.7439C25.8032 33.744 25.8028 33.7443 25.8021 33.7444C25.8028 33.7442 25.8032 33.744 25.8037 33.7439ZM14.7675 33.7438C14.7681 33.7439 14.7687 33.7442 14.7693 33.7444C14.7687 33.7442 14.7681 33.7439 14.7675 33.7438ZM25.9602 6.89995C25.9607 6.90031 25.9613 6.90055 25.9619 6.90091C25.9614 6.90055 25.9608 6.90031 25.9602 6.89995ZM25.9593 6.89934C25.9594 6.89934 25.9596 6.89946 25.9597 6.89958C25.9596 6.89946 25.9594 6.89946 25.9593 6.89934ZM14.6145 6.89801C14.6141 6.89825 14.6134 6.89861 14.613 6.89898C14.6134 6.89861 14.6141 6.89825 14.6145 6.89801ZM14.6156 6.89728C14.6154 6.8974 14.6153 6.89752 14.615 6.89764C14.6151 6.89752 14.6154 6.8974 14.6156 6.89728ZM25.8021 6.82711C25.8026 6.82724 25.803 6.82736 25.8035 6.8276C25.8031 6.82748 25.8026 6.82736 25.8021 6.82711ZM14.7693 6.82711C14.7689 6.82724 14.7684 6.82736 14.7681 6.82748C14.7684 6.82748 14.7688 6.82736 14.7693 6.82711Z" fill="url(#paint2_linear)" stroke="url(#paint3_linear)" stroke-width="0.4"/>
<path d="M36.9768 53.2011C34.4096 53.2011 32.321 51.1125 32.321 48.5452C32.321 45.978 34.4096 43.8894 36.9768 43.8894C39.5441 43.8894 41.6327 45.978 41.6327 48.5452C41.6327 51.1125 39.5441 53.2011 36.9768 53.2011ZM36.9768 45.7071C35.4119 45.7071 34.1387 46.9803 34.1387 48.5452C34.1387 50.1102 35.4119 51.3834 36.9768 51.3834C38.5418 51.3834 39.8149 50.1102 39.8149 48.5452C39.8149 46.9803 38.5417 45.7071 36.9768 45.7071Z" fill="url(#paint4_linear)" stroke="url(#paint5_linear)" stroke-width="0.4"/>
<path d="M36.9769 63.0437C36.206 63.0437 35.4352 62.9215 34.6697 62.6768C33.8786 62.4242 33.2971 61.7233 33.1884 60.8915C33.1093 60.2791 33.0467 59.6459 33.0024 59.0082C32.9933 58.8748 32.9078 58.76 32.7793 58.7072C32.7761 58.7059 32.7729 58.7045 32.7697 58.7032C32.7667 58.702 32.7638 58.7008 32.7607 58.6996C32.6312 58.6455 32.4887 58.6664 32.3887 58.7536C31.9132 59.1678 31.4208 59.5716 30.9255 59.9535C30.2623 60.4662 29.3549 60.5514 28.6151 60.17C27.186 59.4322 26.0885 58.3343 25.3528 56.9065C24.9717 56.1691 25.0564 55.262 25.5691 54.5964C25.957 54.0933 26.3605 53.6009 26.7684 53.1327C26.8559 53.0325 26.8762 52.8901 26.8224 52.76C26.8212 52.7571 26.8199 52.7542 26.8188 52.7513C26.818 52.7494 26.8172 52.7476 26.8163 52.7456C26.7625 52.6157 26.6473 52.5294 26.5157 52.5205C25.89 52.4769 25.2568 52.4141 24.6324 52.3333C23.7997 52.2267 23.0976 51.6455 22.8446 50.8529C22.3554 49.3222 22.3554 47.7698 22.8446 46.2388C23.0971 45.4479 23.7984 44.8663 24.6311 44.7575C25.2641 44.6757 25.8979 44.6131 26.5162 44.5713C26.6461 44.5621 26.7619 44.4756 26.8161 44.3458C26.8189 44.3387 26.8218 44.3316 26.8248 44.3246C26.8755 44.1965 26.8539 44.0564 26.768 43.9575C26.3609 43.4903 25.9575 42.9979 25.5694 42.4946C25.056 41.8304 24.971 40.9229 25.3532 40.1833C26.0889 38.7556 27.1864 37.6581 28.6151 36.9219C29.355 36.5404 30.2623 36.6257 30.9264 37.1391C31.4162 37.5156 31.9091 37.9192 32.3889 38.3374C32.486 38.4219 32.6237 38.4442 32.7506 38.3962C32.7617 38.3912 32.7745 38.386 32.7886 38.3805C32.9121 38.3248 32.9935 38.2126 33.0021 38.0849C33.0467 37.4442 33.1093 36.8107 33.1881 36.2003C33.2972 35.367 33.8788 34.6662 34.6697 34.4135C36.2006 33.9243 37.7531 33.9243 39.2839 34.4135C40.0761 34.6666 40.6573 35.3681 40.7643 36.2008C40.8447 36.8236 40.9077 37.4573 40.9512 38.0834C40.9601 38.2124 41.0415 38.3247 41.1649 38.3805C41.1791 38.3859 41.1918 38.3912 41.2029 38.3962C41.3298 38.444 41.4676 38.4218 41.565 38.337C42.042 37.9215 42.534 37.5181 43.0271 37.1382C43.692 36.6257 44.5992 36.5407 45.3386 36.9218C46.7671 37.658 47.8646 38.7555 48.6008 40.184C48.9826 40.9228 48.8976 41.8303 48.3836 42.4954C47.9959 42.9981 47.5924 43.4905 47.1853 43.9579C47.0985 44.0576 47.0775 44.2003 47.1309 44.3298C47.1319 44.3324 47.133 44.3349 47.134 44.3373C47.1351 44.3399 47.1362 44.3424 47.1373 44.3451C47.1912 44.4752 47.3073 44.562 47.4402 44.5715C48.0558 44.613 48.6896 44.6756 49.3211 44.7572C50.1551 44.8662 50.8564 45.4477 51.1089 46.2389C51.5351 47.5719 51.5903 48.9258 51.2729 50.2627C51.1568 50.7511 50.6667 51.0528 50.1786 50.9371C49.6902 50.8211 49.3884 50.3312 49.5042 49.8428C49.7476 48.8181 49.7061 47.8203 49.3773 46.7921C49.338 46.6688 49.2239 46.5776 49.0869 46.5598C48.4931 46.4831 47.8964 46.4242 47.3147 46.385C46.4875 46.3264 45.7771 45.8116 45.4579 45.0413C45.4568 45.0387 45.4557 45.0362 45.4548 45.0336C45.4538 45.0311 45.4527 45.0287 45.4516 45.0261C45.1323 44.2551 45.2712 43.3885 45.8141 42.7644C46.198 42.3238 46.5783 41.8596 46.9446 41.3845C47.0287 41.2758 47.0444 41.132 46.9853 41.0178C46.4174 39.916 45.6065 39.1049 44.5055 38.5375C44.3904 38.4783 44.2455 38.4939 44.1364 38.578C43.6719 38.9358 43.2084 39.316 42.7583 39.708C42.1339 40.2513 41.2668 40.3902 40.4952 40.0708C40.4917 40.0694 40.4881 40.0678 40.4846 40.0664C40.4832 40.0658 40.4819 40.0653 40.4806 40.0647C39.7085 39.7449 39.1939 39.0335 39.1376 38.2083C39.0965 37.619 39.0372 37.0213 38.9612 36.4331C38.9436 36.2971 38.8531 36.1843 38.7304 36.1451C37.5504 35.7679 36.403 35.768 35.2228 36.1451C35.0996 36.1845 35.0084 36.2982 34.9905 36.4348C34.9165 37.0082 34.8574 37.606 34.8154 38.2096C34.7593 39.0335 34.2447 39.7449 33.4724 40.0648C33.471 40.0654 33.4697 40.0659 33.4683 40.0665C33.4648 40.0679 33.4613 40.0694 33.4578 40.071C32.6862 40.3903 31.8193 40.2515 31.1952 39.7084C30.7427 39.3142 30.2788 38.9343 29.8164 38.5787C29.7066 38.4939 29.5626 38.4783 29.4475 38.5375C28.3465 39.1049 27.5356 39.916 26.9682 41.0168C26.9087 41.132 26.9244 41.2756 27.0079 41.3837C27.3745 41.8591 27.7549 42.3233 28.1387 42.764C28.6816 43.3881 28.8206 44.2543 28.5019 45.025C28.4982 45.0344 28.4944 45.0436 28.4904 45.0529C28.1687 45.8169 27.4614 46.3267 26.6414 46.3847C26.0569 46.4242 25.4602 46.4831 24.8651 46.5599C24.7292 46.5776 24.6152 46.6688 24.5759 46.7919C24.1987 47.9722 24.1987 49.1196 24.5759 50.2995C24.6152 50.4224 24.7282 50.5129 24.8641 50.5303C25.4542 50.6065 26.0514 50.6659 26.6404 50.707C27.4643 50.7631 28.1757 51.2777 28.4956 52.0499C28.4967 52.0526 28.4978 52.0551 28.4988 52.0578C28.4998 52.0601 28.5008 52.0623 28.5016 52.0644C28.8216 52.8369 28.6823 53.7039 28.1382 54.3272C27.7545 54.7675 27.3744 55.2318 27.0087 55.706C26.925 55.8146 26.9089 55.9587 26.9679 56.0728C27.5357 57.1744 28.3468 57.9858 29.4483 58.5545C29.5627 58.6134 29.7068 58.5979 29.8145 58.5145C30.2821 58.154 30.7462 57.7735 31.1949 57.3826C31.8137 56.8443 32.6692 56.7032 33.4348 57.0114C33.4583 57.0202 33.4786 57.0289 33.4949 57.0363C34.2549 57.3593 34.7601 58.0648 34.8158 58.8838C34.8576 59.4844 34.9166 60.0815 34.9909 60.6575C35.0086 60.7926 35.0996 60.9062 35.2227 60.9455C36.403 61.3228 37.5504 61.3227 38.7303 60.9455C38.8533 60.9062 38.9438 60.7935 38.9612 60.6583C39.0374 60.0683 39.0968 59.471 39.1377 58.8821C39.1934 58.0646 39.6986 57.3592 40.4585 57.0362C40.4748 57.0288 40.495 57.0202 40.5186 57.0114C41.2838 56.703 42.1397 56.844 42.7581 57.3822C43.2049 57.7714 43.6689 58.1522 44.1375 58.5145C44.2454 58.5977 44.3902 58.6135 44.5057 58.5543C45.6066 57.9859 46.4178 57.1744 46.9849 56.0738C47.0443 55.9588 47.0282 55.8147 46.9445 55.7057C46.5786 55.2314 46.1985 54.7673 45.8146 54.3264C45.2711 53.704 45.1318 52.837 45.4517 52.0644C45.4522 52.0632 45.4527 52.0619 45.4533 52.0607C45.4565 52.0531 45.4596 52.0454 45.463 52.0377C45.7852 51.2724 46.4933 50.7628 47.3143 50.707C47.318 50.7067 47.3215 50.7065 47.3251 50.7062C47.3483 50.7045 47.3716 50.7037 47.3967 50.7037C47.8987 50.7037 48.3056 51.1106 48.3056 51.6126C48.3056 52.0998 47.9221 52.4975 47.4405 52.5203C47.4388 52.5205 47.4371 52.5206 47.4354 52.5207C47.3047 52.5306 47.1907 52.6166 47.1374 52.7455C47.137 52.7465 47.1365 52.7474 47.1362 52.7483C47.1336 52.7543 47.1312 52.7604 47.1285 52.7665C47.078 52.8947 47.0992 53.034 47.1845 53.1318C47.5928 53.6006 47.9962 54.0929 48.3841 54.5961C48.8971 55.262 48.9819 56.169 48.6003 56.9075C47.865 58.3343 46.7675 59.4322 45.339 60.1698C44.5992 60.5509 43.6919 60.4661 43.027 59.9537C42.5293 59.5691 42.0375 59.1655 41.5646 58.7534C41.4647 58.6666 41.3221 58.6459 41.1928 58.6997C41.1897 58.7009 41.1867 58.7022 41.1837 58.7034C41.1805 58.7048 41.1774 58.7061 41.1742 58.7074C41.0457 58.7604 40.9601 58.8752 40.9512 59.0071C40.9076 59.633 40.8447 60.2662 40.764 60.8906C40.6574 61.7225 40.0762 62.4241 39.2835 62.6773C38.5185 62.9213 37.7477 63.0437 36.9769 63.0437ZM41.0604 58.7431C41.0598 58.7432 41.0592 58.7433 41.0586 58.7436C41.0592 58.7433 41.0598 58.7431 41.0604 58.7431ZM32.8933 58.7431C32.8939 58.7432 32.8945 58.7433 32.8951 58.7436C32.8945 58.7433 32.8939 58.7431 32.8933 58.7431ZM32.8921 58.7427H32.8925C32.8923 58.7428 32.8922 58.7427 32.8921 58.7427ZM41.0615 58.7427C41.0614 58.7427 41.0614 58.7427 41.0613 58.7427C41.0613 58.7428 41.0614 58.7428 41.0615 58.7427ZM32.7186 58.6795C32.7189 58.6797 32.7193 58.6798 32.7197 58.6801C32.7193 58.6798 32.7189 58.6797 32.7186 58.6795ZM41.2354 58.6793C41.2352 58.6793 41.2351 58.6795 41.2348 58.6796C41.2351 58.6795 41.2352 58.6793 41.2354 58.6793ZM47.1438 44.3616C47.1438 44.3616 47.1439 44.3616 47.1438 44.3616V44.3616ZM40.6013 40.1049C40.6019 40.105 40.6025 40.1051 40.6031 40.1054C40.6026 40.1053 40.6019 40.105 40.6013 40.1049ZM33.3523 40.1049C33.3517 40.105 33.3511 40.1051 33.3505 40.1054C33.3511 40.1053 33.3517 40.105 33.3523 40.1049ZM40.5996 40.1044C40.6001 40.1045 40.6005 40.1047 40.6012 40.1048C40.6005 40.1047 40.6001 40.1045 40.5996 40.1044ZM33.3542 40.1044C33.3537 40.1045 33.3532 40.1047 33.3527 40.1048C33.3532 40.1047 33.3537 40.1045 33.3542 40.1044ZM40.598 40.1041C40.5982 40.1041 40.5986 40.1042 40.5988 40.1043C40.5986 40.1042 40.5982 40.1041 40.598 40.1041ZM40.4367 40.0439C40.4369 40.0441 40.4372 40.0442 40.4374 40.0443C40.4373 40.0442 40.4369 40.0441 40.4367 40.0439ZM33.5173 40.0438C33.517 40.0438 33.5168 40.0439 33.5167 40.0441C33.5168 40.0439 33.517 40.0438 33.5173 40.0438Z" fill="url(#paint6_linear)" stroke="url(#paint7_linear)" stroke-width="0.4"/>
<path d="M50.5325 29.2639C48.6193 29.2639 47.0627 27.7073 47.0627 25.7941C47.0627 23.8807 48.6193 22.3242 50.5325 22.3242C52.4459 22.3242 54.0023 23.8808 54.0023 25.7941C54.0025 27.7073 52.4459 29.2639 50.5325 29.2639ZM50.5325 24.142C49.6216 24.142 48.8804 24.8831 48.8804 25.7941C48.8804 26.705 49.6216 27.4461 50.5325 27.4461C51.4436 27.4461 52.1846 26.705 52.1846 25.7941C52.1847 24.883 51.4436 24.142 50.5325 24.142Z" fill="url(#paint8_linear)" stroke="url(#paint9_linear)" stroke-width="0.4"/>
<path d="M50.5325 36.2614C49.963 36.2614 49.3935 36.171 48.828 35.9903C48.1716 35.7807 47.6901 35.2001 47.601 34.5112C47.5444 34.0742 47.5002 33.6293 47.4695 33.1888C47.1367 33.4782 46.7909 33.7615 46.4415 34.0309C45.8912 34.4551 45.1401 34.525 44.5279 34.2092C43.4726 33.665 42.6616 32.8539 42.1172 31.7985C41.8014 31.1863 41.8713 30.4352 42.2955 29.885C42.565 29.5355 42.8482 29.1898 43.1376 28.857C42.6969 28.8264 42.2522 28.7821 41.8151 28.7255C41.1263 28.6365 40.5457 28.1549 40.3361 27.4986C39.9748 26.3676 39.9748 25.2204 40.3361 24.0894C40.5457 23.4331 41.1263 22.9515 41.8152 22.8625C42.2532 22.8059 42.698 22.7615 43.1376 22.731C42.8484 22.3984 42.5652 22.0527 42.2956 21.703C41.8715 21.1528 41.8015 20.4017 42.1173 19.7894C42.6617 18.734 43.4728 17.9229 44.528 17.3787C45.14 17.0628 45.8912 17.1328 46.4415 17.5569C46.7908 17.8262 47.1365 18.1094 47.4695 18.399C47.5002 17.9584 47.5444 17.5137 47.601 17.0766C47.6901 16.3878 48.1716 15.8072 48.828 15.5975C49.959 15.236 51.1061 15.236 52.2372 15.5975C52.8934 15.8072 53.375 16.3878 53.4642 17.0767C53.5208 17.5146 53.5651 17.9594 53.5957 18.3989C53.9284 18.1095 54.2742 17.8263 54.6237 17.5569C55.1738 17.1328 55.9248 17.0628 56.5371 17.3787C57.5924 17.9229 58.4035 18.734 58.9478 19.7894C59.2636 20.4016 59.1936 21.1527 58.7696 21.7029C58.5001 22.0525 58.2169 22.3982 57.9276 22.7309C58.3671 22.7614 58.8119 22.8057 59.2498 22.8623C59.9388 22.9514 60.5193 23.433 60.729 24.0893C61.0904 25.2203 61.0904 26.3674 60.729 27.4986C60.5193 28.1549 59.9388 28.6365 59.2498 28.7255C58.813 28.7821 58.3681 28.8264 57.9275 28.857C58.2171 29.19 58.5003 29.5359 58.7696 29.885C59.1937 30.4352 59.2636 31.1863 58.9478 31.7985C58.4036 32.8538 57.5925 33.6648 56.5371 34.2092C55.9248 34.5251 55.1737 34.4551 54.6237 34.0309C54.2738 33.7612 53.9281 33.478 53.5957 33.1888C53.5651 33.6284 53.5208 34.0731 53.4642 34.5112C53.3751 35.2001 52.8935 35.7807 52.2372 35.9903C51.6716 36.1711 51.1022 36.2614 50.5325 36.2614ZM49.4021 34.2655C50.1624 34.5042 50.9026 34.5042 51.663 34.2655C51.715 33.8614 51.7556 33.4511 51.7835 33.046C51.8306 32.3621 52.2565 31.7734 52.8951 31.5097C53.5424 31.2414 54.2596 31.3565 54.776 31.8065C55.0822 32.0732 55.4009 32.3346 55.7235 32.5838C56.43 32.2148 56.9533 31.6915 57.3222 30.985C57.0736 30.663 56.8122 30.3442 56.5449 30.0375C56.0948 29.5207 55.9797 28.8035 56.2445 28.1654C56.5119 27.5179 57.1005 27.0921 57.7844 27.045C58.1906 27.0171 58.6009 26.9765 59.0039 26.9245C59.2427 26.1641 59.2427 25.4241 59.0039 24.6636C58.5999 24.6116 58.1896 24.571 57.7844 24.5431C57.1005 24.496 56.5119 24.0702 56.2481 23.4315C55.9797 22.7847 56.0948 22.0674 56.5449 21.5507C56.8119 21.2442 57.0733 20.9255 57.3222 20.6031C56.9533 19.8966 56.43 19.3734 55.7235 19.0045C55.4012 19.2533 55.0823 19.5147 54.776 19.7817C54.2595 20.2317 53.542 20.3468 52.9041 20.0822C52.2566 19.8147 51.8308 19.2261 51.7836 18.5423C51.7557 18.137 51.7153 17.7268 51.6632 17.3227C50.9029 17.084 50.1628 17.084 49.4022 17.3227C49.3503 17.726 49.3098 18.1361 49.2818 18.5423C49.2347 19.2261 48.8088 19.8147 48.1702 20.0785C48.1687 20.0791 48.1569 20.084 48.1554 20.0846C47.5232 20.3469 46.806 20.2317 46.2893 19.7817C45.9826 19.5145 45.6638 19.253 45.3418 19.0045C44.6353 19.3734 44.112 19.8967 43.743 20.6031C43.992 20.9257 44.2534 21.2444 44.5203 21.5507C44.9702 22.0673 45.0853 22.7844 44.8207 23.4224C44.5532 24.07 43.9645 24.4959 43.2807 24.543C42.8755 24.5709 42.4652 24.6114 42.0611 24.6635C41.8225 25.4239 41.8225 26.164 42.0611 26.9244C42.4644 26.9764 42.8746 27.0169 43.2807 27.0448C43.9645 27.092 44.5532 27.5178 44.8169 28.1565C44.8175 28.1579 44.8224 28.1698 44.823 28.1712C45.0853 28.8035 44.9701 29.5207 44.5201 30.0373C44.2531 30.3439 43.9917 30.6626 43.7429 30.9849C44.1119 31.6914 44.6351 32.2146 45.3416 32.5836C45.6639 32.3349 45.9826 32.0735 46.2892 31.8064C46.8058 31.3563 47.5229 31.2412 48.1611 31.506C48.8087 31.7734 49.2345 32.3621 49.2817 33.046C49.3097 33.452 49.3503 33.8624 49.4021 34.2655ZM58.9974 26.9452C58.9974 26.9454 58.9974 26.9454 58.9973 26.9455C58.9974 26.9454 58.9974 26.9454 58.9974 26.9452Z" fill="url(#paint10_linear)" stroke="url(#paint11_linear)" stroke-width="0.4"/>
<path d="M4.15019 46.208C3.56354 46.208 2.98356 46.0278 2.49835 45.6856C1.85293 45.2304 1.42091 44.5207 1.31318 43.7383L1.21453 43.0221C1.10668 42.2398 1.33063 41.4396 1.82881 40.8269C2.32711 40.2141 3.06476 39.8316 3.85269 39.7776L7.0015 39.5616C8.49678 39.4593 9.82664 40.5411 10.0311 42.025L10.0708 42.3131C10.2753 43.7971 9.28677 45.1988 7.82058 45.5043L4.73066 46.1482C4.53858 46.1883 4.34396 46.208 4.15019 46.208ZM7.19721 41.3728C7.17358 41.3728 7.14971 41.3736 7.12584 41.3752L3.97702 41.5912C3.68545 41.6112 3.42346 41.747 3.23914 41.9738C3.05482 42.2005 2.97532 42.4847 3.01519 42.7741L3.11383 43.4903C3.1537 43.7796 3.30712 44.0318 3.54585 44.2002C3.78458 44.3686 4.07372 44.4283 4.35972 44.3688L7.44964 43.725C7.98418 43.6136 8.34457 43.1025 8.27005 42.5615L8.2303 42.2735V42.2733C8.15892 41.756 7.71236 41.3728 7.19721 41.3728Z" fill="url(#paint12_linear)" stroke="url(#paint13_linear)" stroke-width="0.4"/>
<path d="M9.32193 55.6835C9.23661 55.6835 9.15106 55.6796 9.0655 55.6719C8.27902 55.6004 7.54999 55.2018 7.06538 54.5781L6.62185 54.0072C6.13724 53.3836 5.9311 52.5787 6.05628 51.7989C6.18147 51.019 6.629 50.319 7.28435 49.8782L9.90336 48.1167C11.1463 47.2808 12.8396 47.5525 13.7587 48.7354L13.9372 48.965C14.8562 50.148 14.7011 51.8561 13.5839 52.8539L11.23 54.9564C10.705 55.4254 10.0212 55.6835 9.32193 55.6835ZM11.4978 49.4488C11.2971 49.4488 11.095 49.5062 10.9178 49.6253L8.29878 51.3868C8.05641 51.5498 7.8973 51.7985 7.85101 52.087C7.80471 52.3755 7.87803 52.6614 8.05726 52.8922L8.50079 53.4631C8.68002 53.6938 8.93899 53.8353 9.22995 53.8619C9.52139 53.8885 9.8012 53.7957 10.0191 53.601L12.3731 51.4985C12.7804 51.1347 12.837 50.5119 12.5019 50.0807L12.3234 49.8511C12.3234 49.8511 12.3234 49.8511 12.3234 49.851C12.1193 49.5881 11.8104 49.4488 11.4978 49.4488Z" fill="url(#paint14_linear)" stroke="url(#paint15_linear)" stroke-width="0.4"/>
<path d="M17.4517 62.7427C17.0852 62.7427 16.7185 62.6728 16.3736 62.5324L15.704 62.2598C14.9726 61.962 14.3916 61.368 14.1101 60.6301C13.8285 59.8922 13.8662 59.0622 14.2134 58.3528L15.6008 55.5179C16.2592 54.1724 17.8617 53.5611 19.2489 54.1259L19.5184 54.2355C20.9056 54.8004 21.6253 56.3572 21.1568 57.7799L20.1695 60.7778C19.9224 61.528 19.3696 62.1483 18.6528 62.4796C18.2737 62.6547 17.8629 62.7427 17.4517 62.7427ZM18.1729 55.7329C17.7851 55.7329 17.413 55.95 17.2335 56.317L15.8461 59.1519C15.7176 59.4144 15.7043 59.7092 15.8084 59.9821C15.9125 60.255 16.119 60.4661 16.3896 60.5763L17.0591 60.849C17.3297 60.9591 17.6248 60.9522 17.8899 60.8297C18.1551 60.7071 18.3515 60.4867 18.4429 60.2092L19.4302 57.2114C19.6009 56.6927 19.3385 56.1251 18.8329 55.9192L18.5633 55.8096C18.436 55.7575 18.3035 55.7329 18.1729 55.7329Z" fill="url(#paint16_linear)" stroke="url(#paint17_linear)" stroke-width="0.4"/>
<defs>
<linearGradient id="paint0_linear" x1="11.9031" y1="20.2857" x2="28.6683" y2="20.2857" gradientUnits="userSpaceOnUse">
<stop stop-color="#EF5726"/>
<stop offset="1" stop-color="#C62433"/>
</linearGradient>
<linearGradient id="paint1_linear" x1="11.9031" y1="20.2857" x2="28.6683" y2="20.2857" gradientUnits="userSpaceOnUse">
<stop stop-color="#EF5726"/>
<stop offset="1" stop-color="#C62433"/>
</linearGradient>
<linearGradient id="paint2_linear" x1="1" y1="20.2854" x2="39.5719" y2="20.2854" gradientUnits="userSpaceOnUse">
<stop stop-color="#EF5726"/>
<stop offset="1" stop-color="#C62433"/>
</linearGradient>
<linearGradient id="paint3_linear" x1="1" y1="20.2854" x2="39.5719" y2="20.2854" gradientUnits="userSpaceOnUse">
<stop stop-color="#EF5726"/>
<stop offset="1" stop-color="#C62433"/>
</linearGradient>
<linearGradient id="paint4_linear" x1="32.321" y1="48.5452" x2="41.6327" y2="48.5452" gradientUnits="userSpaceOnUse">
<stop stop-color="#EF5726"/>
<stop offset="1" stop-color="#C62433"/>
</linearGradient>
<linearGradient id="paint5_linear" x1="32.321" y1="48.5452" x2="41.6327" y2="48.5452" gradientUnits="userSpaceOnUse">
<stop stop-color="#EF5726"/>
<stop offset="1" stop-color="#C62433"/>
</linearGradient>
<linearGradient id="paint6_linear" x1="22.4777" y1="48.5452" x2="51.4758" y2="48.5452" gradientUnits="userSpaceOnUse">
<stop stop-color="#EF5726"/>
<stop offset="1" stop-color="#C62433"/>
</linearGradient>
<linearGradient id="paint7_linear" x1="22.4777" y1="48.5452" x2="51.4758" y2="48.5452" gradientUnits="userSpaceOnUse">
<stop stop-color="#EF5726"/>
<stop offset="1" stop-color="#C62433"/>
</linearGradient>
<linearGradient id="paint8_linear" x1="47.0627" y1="25.7941" x2="54.0023" y2="25.7941" gradientUnits="userSpaceOnUse">
<stop stop-color="#EF5726"/>
<stop offset="1" stop-color="#C62433"/>
</linearGradient>
<linearGradient id="paint9_linear" x1="47.0627" y1="25.7941" x2="54.0023" y2="25.7941" gradientUnits="userSpaceOnUse">
<stop stop-color="#EF5726"/>
<stop offset="1" stop-color="#C62433"/>
</linearGradient>
<linearGradient id="paint10_linear" x1="40.0651" y1="25.7939" x2="61" y2="25.7939" gradientUnits="userSpaceOnUse">
<stop stop-color="#EF5726"/>
<stop offset="1" stop-color="#C62433"/>
</linearGradient>
<linearGradient id="paint11_linear" x1="40.0651" y1="25.7939" x2="61" y2="25.7939" gradientUnits="userSpaceOnUse">
<stop stop-color="#EF5726"/>
<stop offset="1" stop-color="#C62433"/>
</linearGradient>
<linearGradient id="paint12_linear" x1="1.18799" y1="42.8815" x2="10.0976" y2="42.8815" gradientUnits="userSpaceOnUse">
<stop stop-color="#EF5726"/>
<stop offset="1" stop-color="#C62433"/>
</linearGradient>
<linearGradient id="paint13_linear" x1="1.18799" y1="42.8815" x2="10.0976" y2="42.8815" gradientUnits="userSpaceOnUse">
<stop stop-color="#EF5726"/>
<stop offset="1" stop-color="#C62433"/>
</linearGradient>
<linearGradient id="paint14_linear" x1="6.02045" y1="51.658" x2="14.536" y2="51.658" gradientUnits="userSpaceOnUse">
<stop stop-color="#EF5726"/>
<stop offset="1" stop-color="#C62433"/>
</linearGradient>
<linearGradient id="paint15_linear" x1="6.02045" y1="51.658" x2="14.536" y2="51.658" gradientUnits="userSpaceOnUse">
<stop stop-color="#EF5726"/>
<stop offset="1" stop-color="#C62433"/>
</linearGradient>
<linearGradient id="paint16_linear" x1="13.923" y1="58.3293" x2="21.2996" y2="58.3293" gradientUnits="userSpaceOnUse">
<stop stop-color="#EF5726"/>
<stop offset="1" stop-color="#C62433"/>
</linearGradient>
<linearGradient id="paint17_linear" x1="13.923" y1="58.3293" x2="21.2996" y2="58.3293" gradientUnits="userSpaceOnUse">
<stop stop-color="#EF5726"/>
<stop offset="1" stop-color="#C62433"/>
</linearGradient>
</defs>
</svg>
